<?xml version="1.0" ?><!-- Uploaded to: SVG Repo, www.svgrepo.com, Generator: SVG Repo Mixer Tools -->
<svg fill="#000000" width="800px" height="800px" viewBox="0 0 100 100" data-name="Layer 1" id="Layer_1" xmlns="http://www.w3.org/2000/svg"><title/><path d="M5.07629,94.38086A1.0028,1.0028,0,0,0,6,95H70a1.0065,1.0065,0,0,0,.70715-.29291l24-24A1.01,1.01,0,0,0,95,69.99969V6a1,1,0,0,0-1-1H30l-.0105.00214a.9962.9962,0,0,0-.69659.29077l-24,24A1.01425,1.01425,0,0,0,5,30V94A1.00069,1.00069,0,0,0,5.07629,94.38086ZM70.93042,91.6554A.9951.9951,0,0,0,69,92v1H8.41425l22-22H91.58582ZM91.7,7A.99924.99924,0,0,0,93,8.30011V69H71V68a1,1,0,0,0-2,0v1H31V31h1a1,1,0,0,0,0-2H31V7ZM29,69.58582,7.00006,91.58575,7,31H8a.99512.99512,0,0,0,.34467-1.93042L29,8.41425Z"/><path d="M70,39a1,1,0,0,0,1-1V36a1,1,0,0,0-2,0v2A1,1,0,0,0,70,39Z"/><path d="M70,47a1,1,0,0,0,1-1V44a1,1,0,0,0-2,0v2A1,1,0,0,0,70,47Z"/><path d="M70,83a1,1,0,0,0-1,1v2a1,1,0,0,0,2,0V84A1,1,0,0,0,70,83Z"/><path d="M70,55a1,1,0,0,0,1-1V52a1,1,0,0,0-2,0v2A1,1,0,0,0,70,55Z"/><path d="M69,76v2a1,1,0,0,0,2,0V76a1,1,0,0,0-2,0Z"/><path d="M70,63a1,1,0,0,0,1-1V60a1,1,0,0,0-2,0v2A1,1,0,0,0,70,63Z"/><path d="M46,31h2a1,1,0,0,0,0-2H46a1,1,0,0,0,0,2Z"/><path d="M38,31h2a1,1,0,0,0,0-2H38a1,1,0,0,0,0,2Z"/><path d="M22,31h2a1,1,0,0,0,0-2H22a1,1,0,0,0,0,2Z"/><path d="M14,31h2a1,1,0,0,0,0-2H14a1,1,0,0,0,0,2Z"/><path d="M54,31h2a1,1,0,0,0,0-2H54a1,1,0,0,0,0,2Z"/><path d="M62,31h2a1,1,0,0,0,0-2H62a1,1,0,0,0,0,2Z"/><path d="M69.07721,30.3822a.99931.99931,0,0,0,1.626.32752l.004-.00263,1.41425-1.41418a1,1,0,1,0-1.41425-1.41419l-1.41424,1.41419a1.00368,1.00368,0,0,0-.2157,1.08929Z"/><path d="M76.364,25.05029l1.41425-1.41424A1,1,0,0,0,76.364,22.22186l-1.41424,1.41419A1,1,0,0,0,76.364,25.05029Z"/><path d="M82.02087,19.39343l1.41425-1.41424A1,1,0,0,0,82.02087,16.565l-1.41424,1.41419a1,1,0,0,0,1.41424,1.41424Z"/><path d="M87.67773,13.73657,89.092,12.32233a1,1,0,1,0-1.41425-1.41419l-1.41424,1.41425a1,1,0,1,0,1.41424,1.41418Z"/></svg>